<?xml version="1.0" encoding="utf-8"?>
<!-- Generator: Adobe Illustrator 26.0.2, SVG Export Plug-In . SVG Version: 6.00 Build 0)  -->
<svg version="1.1" id="Capa_1" xmlns="http://www.w3.org/2000/svg" xmlns:xlink="http://www.w3.org/1999/xlink" x="0px" y="0px"
	 viewBox="0 0 700 700" style="enable-background:new 0 0 700 700;" xml:space="preserve">
<path d="M239.1,233.3c4.5-80.3,26.2-158.6,63.6-229.8C318.4,1.3,334.2,0.1,350,0c15.8,0.1,31.6,1.3,47.3,3.6
	c37.4,71.1,59.1,149.5,63.6,229.8H239.1z M200,350c0-27.7,1.1-55.7,3.1-83.3H10.4c-13.9,54.7-13.9,112,0,166.7H203
	C201.1,405.7,200,377.7,200,350z M463.7,266.7H236.2c-1.9,26.5-2.9,54.3-2.9,83.3s1,56.8,2.9,83.3h227.5c1.9-26.5,2.9-54.3,2.9-83.3
	C466.6,321,465.6,293.2,463.7,266.7L463.7,266.7z M239.1,466.7c4.5,80.3,26.2,158.6,63.6,229.8c15.7,2.3,31.4,3.5,47.3,3.6
	c15.8-0.1,31.6-1.3,47.3-3.6c37.4-71.1,59.1-149.5,63.6-229.8L239.1,466.7z M689.5,433.3c13.9-54.7,13.9-112,0-166.7H496.9
	c2,27.6,3.1,55.6,3.1,83.3c0,27.7-1.1,55.7-3.1,83.3H689.5z M494.1,466.7L494.1,466.7c-5.6,76.1-23.8,150.8-53.7,221.1
	c54.8-14.8,105.1-42.6,146.8-81.1c41.7-38.5,73.4-86.5,92.4-140L494.1,466.7z M205.9,466.7H20.4c19,53.4,50.7,101.5,92.4,140
	c41.6,38.5,92,66.3,146.8,81.1C229.6,617.5,211.5,542.8,205.9,466.7L205.9,466.7z M205.9,233.3L205.9,233.3
	c5.6-76.1,23.7-150.8,53.7-221c-54.8,14.8-105.1,42.6-146.8,81.1c-41.6,38.5-73.3,86.5-92.4,140L205.9,233.3z M494.1,233.3h185.4v0
	c-19-53.4-50.7-101.5-92.4-140c-41.6-38.5-92-66.3-146.8-81.1C470.4,82.5,488.5,157.2,494.1,233.3L494.1,233.3z"/>
</svg>
